<svg width="24" height="24" viewBox="0 0 24 24" fill="none" xmlns="http://www.w3.org/2000/svg">
<mask id="mask0_28_1937" style="mask-type:alpha" maskUnits="userSpaceOnUse" x="0" y="0" width="24" height="24">
<rect width="24" height="24" fill="#D9D9D9"/>
</mask>
<g mask="url(#mask0_28_1937)">
<path d="M11.95 18C12.3 18 12.5958 17.8792 12.8375 17.6375C13.0792 17.3958 13.2 17.1 13.2 16.75C13.2 16.4 13.0792 16.1042 12.8375 15.8625C12.5958 15.6208 12.3 15.5 11.95 15.5C11.6 15.5 11.3042 15.6208 11.0625 15.8625C10.8208 16.1042 10.7 16.4 10.7 16.75C10.7 17.1 10.8208 17.3958 11.0625 17.6375C11.3042 17.8792 11.6 18 11.95 18ZM12.1 7.7C12.5667 7.7 12.9417 7.82917 13.225 8.0875C13.5083 8.34583 13.65 8.68333 13.65 9.1C13.65 9.38333 13.5542 9.67083 13.3625 9.9625C13.1708 10.2542 12.9 10.5583 12.55 10.875C12.05 11.3083 11.6833 11.725 11.45 12.125C11.2167 12.525 11.1 12.925 11.1 13.325C11.1 13.5583 11.1875 13.7542 11.3625 13.9125C11.5375 14.0708 11.7417 14.15 11.975 14.15C12.2083 14.15 12.4167 14.0667 12.6 13.9C12.7833 13.7333 12.9 13.525 12.95 13.275C13 12.9917 13.1125 12.7292 13.2875 12.4875C13.4625 12.2458 13.75 11.9333 14.15 11.55C14.6667 11.0667 15.0292 10.625 15.2375 10.225C15.4458 9.825 15.55 9.38333 15.55 8.9C15.55 8.05 15.2292 7.35417 14.5875 6.8125C13.9458 6.27083 13.1167 6 12.1 6C11.4 6 10.7792 6.13333 10.2375 6.4C9.69583 6.66667 9.275 7.075 8.975 7.625C8.85833 7.84167 8.81667 8.05417 8.85 8.2625C8.88333 8.47083 9 8.64167 9.2 8.775C9.41667 8.90833 9.65417 8.95 9.9125 8.9C10.1708 8.85 10.3833 8.70833 10.55 8.475C10.7333 8.225 10.9542 8.03333 11.2125 7.9C11.4708 7.76667 11.7667 7.7 12.1 7.7ZM12 22C10.6333 22 9.34167 21.7375 8.125 21.2125C6.90833 20.6875 5.84583 19.975 4.9375 19.075C4.02917 18.175 3.3125 17.1167 2.7875 15.9C2.2625 14.6833 2 13.3833 2 12C2 10.6167 2.2625 9.31667 2.7875 8.1C3.3125 6.88333 4.02917 5.825 4.9375 4.925C5.84583 4.025 6.90833 3.3125 8.125 2.7875C9.34167 2.2625 10.6333 2 12 2C13.4 2 14.7083 2.2625 15.925 2.7875C17.1417 3.3125 18.2 4.025 19.1 4.925C20 5.825 20.7083 6.88333 21.225 8.1C21.7417 9.31667 22 10.6167 22 12C22 13.3833 21.7417 14.6833 21.225 15.9C20.7083 17.1167 20 18.175 19.1 19.075C18.2 19.975 17.1417 20.6875 15.925 21.2125C14.7083 21.7375 13.4 22 12 22ZM12 20C14.2333 20 16.125 19.2208 17.675 17.6625C19.225 16.1042 20 14.2167 20 12C20 9.78333 19.225 7.89583 17.675 6.3375C16.125 4.77917 14.2333 4 12 4C9.81667 4 7.9375 4.77917 6.3625 6.3375C4.7875 7.89583 4 9.78333 4 12C4 14.2167 4.7875 16.1042 6.3625 17.6625C7.9375 19.2208 9.81667 20 12 20Z" fill="#1F2D3D"/>
</g>
</svg>
